<!DOCTYPE svg PUBLIC "-//W3C//DTD SVG 1.1//EN" "http://www.w3.org/Graphics/SVG/1.1/DTD/svg11.dtd">
<!-- Uploaded to: SVG Repo, www.svgrepo.com, Transformed by: SVG Repo Mixer Tools -->
<svg fill="#000000" width="800px" height="800px" viewBox="-2.88 -2.88 37.76 37.76" xmlns="http://www.w3.org/2000/svg" stroke="#000000" stroke-width="0.00032">
<g id="SVGRepo_bgCarrier" stroke-width="0">
<path transform="translate(-2.88, -2.88), scale(1.18)" d="M16,26.65813130978495C18.468937975944012,27.24154288287333,20.61280017957875,30.193295271837762,23.003090528239838,29.343274188705333C25.255846785591057,28.542162175271628,24.952379887503024,25.079436307499492,26.1907399787394,23.034159920911137C27.34325084080701,21.130672180830594,29.878419432474765,19.924526482034167,30.049218705754207,17.70588399797596C30.220960862958577,15.474993672968482,27.87279853179335,13.890075753003167,27.055018517109215,11.807384499274859C26.248903602578665,9.75440148202519,26.461619181308926,7.392034898900448,25.270539446458542,5.53572415180747C23.91720150639087,3.426532223601368,22.272119527415402,1.014360718658546,19.814679436900832,0.5232371379091436C17.34436057011854,0.02953971182341386,15.14954657586248,2.1185878346104463,12.806837927873847,3.0448322098934977C10.75681453939965,3.855356657482483,8.290867067295313,3.99959299424539,6.835132442288007,5.655003056733079C5.395427372803015,7.292184874145736,5.496328242346182,9.715326915821457,5.0621483251871044,11.851820021334117C4.68594628783496,13.703018170575524,4.4539553797526485,15.513669032599358,4.447756382260193,17.40269633073266C4.440873919351513,19.499996794026835,3.8473441371975063,21.840045452849306,5.023673120159955,23.57641140663675C6.199612859100427,25.312202801710377,8.52373020379775,25.83204690577992,10.542298542122229,26.39878132360276C12.3216375810036,26.8983495845153,14.201394694015882,26.233119761842726,16,26.65813130978495" fill="#bcc5c7" strokewidth="0"/>
</g>
<g id="SVGRepo_tracerCarrier" stroke-linecap="round" stroke-linejoin="round"/>
<g id="SVGRepo_iconCarrier"> <path d="M32 16c0 8.839-7.161 16-16 16s-16-7.161-16-16c0-8.839 7.161-16 16-16s16 7.161 16 16zM22.995 5.917c-1.625 0.056-3.041 0.952-4.099 2.192-1.172 1.36-1.948 2.973-2.511 4.615-1-0.817-1.771-1.885-3.38-2.349-1.292-0.396-2.688-0.135-3.755 0.688-0.548 0.427-0.944 1.011-1.147 1.672-0.479 1.568 0.511 2.968 0.959 3.468l0.984 1.052c0.199 0.204 0.693 0.745 0.448 1.516-0.255 0.844-1.265 1.385-2.307 1.068-0.464-0.141-1.131-0.489-0.98-0.975 0.063-0.203 0.204-0.348 0.281-0.52 0.068-0.147 0.104-0.261 0.125-0.323 0.188-0.62-0.068-1.428-0.735-1.631-0.62-0.193-1.249-0.041-1.5 0.755-0.276 0.907 0.156 2.548 2.48 3.267 2.724 0.833 5.020-0.647 5.348-2.579 0.204-1.208-0.344-2.109-1.344-3.26l-0.817-0.907c-0.495-0.489-0.661-1.333-0.151-1.979 0.432-0.548 1.047-0.776 2.052-0.505 1.473 0.401 2.125 1.416 3.219 2.239-0.453 1.48-0.751 2.964-1.016 4.297l-0.161 0.995c-0.781 4.093-1.375 6.344-2.927 7.636-0.313 0.219-0.76 0.552-1.427 0.577-0.355 0.005-0.475-0.233-0.475-0.343-0.011-0.245 0.199-0.36 0.339-0.469 0.203-0.109 0.521-0.303 0.495-0.901-0.021-0.708-0.609-1.323-1.459-1.296-0.635 0.020-1.604 0.619-1.567 1.713 0.036 1.135 1.093 1.984 2.681 1.927 0.855-0.027 2.751-0.375 4.62-2.599 2.177-2.547 2.787-5.469 3.245-7.609l0.511-2.819c0.285 0.032 0.588 0.053 0.921 0.063 2.708 0.057 4.063-1.348 4.083-2.369 0.016-0.62-0.405-1.229-0.989-1.213-0.515 0.016-0.959 0.369-1.077 0.875-0.125 0.568 0.864 1.084 0.093 1.584-0.547 0.353-1.531 0.604-2.912 0.4l0.251-1.391c0.516-2.635 1.145-5.875 3.547-5.952 0.177-0.011 0.817 0.004 0.828 0.427 0.005 0.14-0.025 0.183-0.192 0.5-0.157 0.208-0.235 0.464-0.224 0.719 0.020 0.672 0.531 1.115 1.276 1.088 0.989-0.031 1.271-1 1.26-1.495-0.041-1.167-1.271-1.896-2.896-1.848z"/> </g>
</svg>